<svg width="44" height="44" viewBox="0 0 44 44" fill="none" xmlns="http://www.w3.org/2000/svg">
<rect width="44" height="44" rx="10" fill="#90D833" fill-opacity="0.1"/>
<path d="M14.4697 21.4697C14.1768 21.7626 14.1768 22.2374 14.4697 22.5303L19.2426 27.3033C19.5355 27.5962 20.0104 27.5962 20.3033 27.3033C20.5962 27.0104 20.5962 26.5355 20.3033 26.2426L16.0607 22L20.3033 17.7574C20.5962 17.4645 20.5962 16.9896 20.3033 16.6967C20.0104 16.4038 19.5355 16.4038 19.2426 16.6967L14.4697 21.4697ZM29 22.75C29.4142 22.75 29.75 22.4142 29.75 22C29.75 21.5858 29.4142 21.25 29 21.25L29 22.75ZM15 22.75L29 22.75L29 21.25L15 21.25L15 22.75Z" fill="#A5D58F"/>
</svg>
