<svg width="20" height="20" viewBox="0 0 20 20" fill="none" xmlns="http://www.w3.org/2000/svg">
<circle cx="10.0001" cy="9.99984" r="3.33333" stroke="#2A2A2A" stroke-width="1.5"/>
<path d="M8.28452 2.02943C9.0611 0.733466 10.9391 0.733466 11.7156 2.02943L11.8908 2.32164C12.3436 3.07744 13.2378 3.44781 14.0925 3.23363L14.4229 3.15082C15.8884 2.78357 17.2164 4.11148 16.8491 5.577L16.7663 5.90744C16.5521 6.76212 16.9225 7.65627 17.6783 8.10917L17.9705 8.28427C19.2665 9.06086 19.2665 10.9388 17.9705 11.7154L17.6783 11.8905C16.9225 12.3434 16.5521 13.2376 16.7663 14.0922L16.8491 14.4227C17.2164 15.8882 15.8884 17.2161 14.4229 16.8489L14.0925 16.766C13.2378 16.5519 12.3436 16.9222 11.8908 17.678L11.7156 17.9702C10.9391 19.2662 9.0611 19.2662 8.28452 17.9702L8.10941 17.678C7.65651 16.9222 6.76236 16.5519 5.90768 16.766L5.57724 16.8489C4.11172 17.2161 2.78381 15.8882 3.15107 14.4227L3.23387 14.0922C3.44805 13.2376 3.07768 12.3434 2.32189 11.8905L2.02968 11.7154C0.73371 10.9388 0.73371 9.06086 2.02968 8.28427L2.32189 8.10917C3.07768 7.65627 3.44805 6.76212 3.23387 5.90744L3.15107 5.577C2.78381 4.11148 4.11172 2.78357 5.57724 3.15082L5.90768 3.23363C6.76236 3.44781 7.65652 3.07744 8.10941 2.32164L8.28452 2.02943Z" stroke="#2A2A2A" stroke-width="1.5"/>
</svg>
